<svg width="460" height="269" viewBox="0 0 460 269" fill="none" xmlns="http://www.w3.org/2000/svg">
<path d="M101 28L113 0L189 0.5C207 13.3 229.167 53.8333 238 72.5C248.4 92.5 250 128.5 249.5 144C249.5 159.6 241.833 185.167 238 196C225 221.5 231.667 255.833 236.5 268.5H162C160.4 266.1 158.333 241.167 157.5 229L47 268.5H0.5L31 197L176 146.5C184.4 81.3 129.5 40.3333 101 28Z" fill="#DDE1E9"/>
<path d="M270.5 189.5C278.9 162.7 282 124.5 277 110.5L340 88C345.667 73.5 351 35.7 327 0.5H406.5C411.167 11.1667 419.8 39.9 417 69.5C417 84 407.5 110.5 403.5 123.5C398.333 135.5 394 165 403.5 189.5C412.5 209.5 436.5 246 459.5 252.5V268H366.5C340 237.5 327.833 191.333 326.5 170.5L270.5 189.5Z" fill="#DDE1E9"/>
<path d="M459.5 47L445.5 52C445.5 100 434.667 126.333 430.5 133.5L459.5 123.5V47Z" fill="#DDE1E9"/>
</svg>
