<svg width="324" height="190" viewBox="0 0 324 190" fill="none" xmlns="http://www.w3.org/2000/svg">
<path d="M70.9412 19.7647L79.4118 0L133.059 0.352941C145.765 9.38824 161.412 38 167.647 51.1765C174.988 65.2941 176.118 90.7059 175.765 101.647C175.765 112.659 170.353 130.706 167.647 138.353C158.471 156.353 163.176 180.588 166.588 189.529H114C112.871 187.835 111.412 170.235 110.824 161.647L32.8235 189.529H0L21.5294 139.059L123.882 103.412C129.812 57.3882 91.0588 28.4706 70.9412 19.7647Z" fill="#DDE1E9"/>
<path d="M190.588 133.765C196.518 114.847 198.706 87.8823 195.176 78L239.647 62.1176C243.647 51.8823 247.412 25.2 230.471 0.352936H286.588C289.882 7.88235 295.976 28.1647 294 49.0588C294 59.2941 287.294 78 284.471 87.1765C280.824 95.6471 277.765 116.471 284.471 133.765C290.824 147.882 307.765 173.647 324 178.235V189.176H258.353C239.647 167.647 231.059 135.059 230.118 120.353L190.588 133.765Z" fill="#DDE1E9"/>
<path d="M324 33.1765L314.118 36.7059C314.118 70.5882 306.471 89.1765 303.529 94.2353L324 87.1765V33.1765Z" fill="#DDE1E9"/>
</svg>
