<svg width="32" height="32" fill="none" xmlns="http://www.w3.org/2000/svg" class="file-icon"><path fill-rule="evenodd" clip-rule="evenodd" d="M17.78 15.578a.709.709 0 00.766.714.825.825 0 00.76-.815l-.021-5.724c-.003-.976-.375-1.848-1.063-2.488-.686-.64-1.582-.951-2.556-.887-2 .132-3.613 1.86-3.592 3.852l.048 12.925c.005 1.345.537 2.577 1.488 3.464.95.886 2.216 1.33 3.558 1.241 2.79-.184 5.032-2.588 5.021-5.384l-.048-12.898c-.006-1.742-.684-3.32-1.912-4.465a6.017 6.017 0 00-4.588-1.597c-1.737.116-3.353.896-4.572 2.203-1.22 1.308-1.897 2.988-1.878 4.714l.023 5.724c0 .422.344.743.765.714a.823.823 0 00.76-.814l-.02-5.725a5.26 5.26 0 011.433-3.603 5.26 5.26 0 013.495-1.683c1.316-.087 2.568.345 3.507 1.22.938.874 1.455 2.094 1.46 3.413l.05 12.898a3.694 3.694 0 01-1.018 2.547 3.746 3.746 0 01-2.47 1.193c-.948.062-1.817-.25-2.478-.865a3.303 3.303 0 01-1.036-2.412l-.049-12.925c-.004-1.135.927-2.133 2.072-2.221a1.95 1.95 0 011.476.509c.396.369.608.883.61 1.436l.01 5.739z" fill="#fff"></path></svg>

