<svg width="46" height="46" fill="none" xmlns="http://www.w3.org/2000/svg">
                    <g clip-path="url(#clip0)">
                        <path d="M45.07 5.519a.639.639 0 00-1.114-.136c-.807 1.131-1.866 1.509-3.093 1.946-.99.352-2.013.716-3.119 1.51-1.564 1.123-2.28 2.653-1.922 4.104l-.039.049a20.998 20.998 0 00-2.113-2.606c-3.509-3.66-8.41-5.862-13.45-6.038a19.235 19.235 0 00-.671-.012c-5.627 0-11.014 2.516-14.778 6.902C1.027 15.6-.632 21.28.22 26.822c.07.463.16.93.264 1.39 1.384 6.092 4.919 10.725 9.698 12.713 1.178.49 2.366.738 3.531.738 2.895 0 5.423-1.548 6.937-4.247.575-1.027.947-2.09 1.103-3.158.092-.63.03-1.26-.032-1.87-.063-.628-.122-1.222-.027-1.82.218-1.37 1.175-2.189 2.56-2.189.395 0 .797.065 1.2.193-.471.864-.899 1.689-1.273 2.453-.791 1.62-1.338 2.961-1.624 3.987-.176.632-.644 2.313.498 3.105.362.252.822.34 1.3.252.431-.08 1.743-.324 5.471-4.568 1-1.139 2.079-2.457 3.206-3.918 2.893-.974 5.144-3.4 5.74-6.186.149-.696.211-1.441.185-2.216a99.174 99.174 0 002.989-4.915 2.25 2.25 0 00.054-.102c1.388-.38 2.583-1.46 3.284-2.97 1.024-2.204.949-5.036-.212-7.975zM29.432 15.955a2.712 2.712 0 01-2.308 1.273 2.716 2.716 0 01-1.449-.42 2.707 2.707 0 01-1.205-1.701 2.706 2.706 0 01.352-2.055 2.713 2.713 0 012.308-1.273c.512 0 1.013.145 1.448.42a2.706 2.706 0 011.205 1.7c.161.71.037 1.44-.351 2.056zm3.536 4.936a121.301 121.301 0 014.217-5.84c.225.202.475.4.747.588.45.312.92.554 1.402.72a107.488 107.488 0 01-3.945 6.215c-2.498 3.681-5.096 7.101-7.315 9.629-1.24 1.412-2.324 2.502-3.16 3.177.323-1.031.94-2.448 1.798-4.125 1.534-3 3.756-6.681 6.256-10.364zm-24.181-.018a2.715 2.715 0 01-1.45-.419 2.706 2.706 0 01-1.204-1.701 2.706 2.706 0 01.351-2.056 2.712 2.712 0 012.308-1.273 2.728 2.728 0 012.303 4.176 2.713 2.713 0 01-2.308 1.273zm-2.856 6a2.712 2.712 0 012.308-1.274c.512 0 1.013.145 1.449.42a2.706 2.706 0 011.205 1.701c.16.71.036 1.44-.352 2.055a2.712 2.712 0 01-2.308 1.273 2.716 2.716 0 01-1.449-.42 2.706 2.706 0 01-1.204-1.7 2.708 2.708 0 01.351-2.056zm8.725-16.18a2.712 2.712 0 012.307-1.274 2.728 2.728 0 012.303 4.176 2.713 2.713 0 01-2.308 1.273 2.715 2.715 0 01-1.449-.419 2.706 2.706 0 01-1.204-1.701 2.706 2.706 0 01.35-2.056z" fill="#1A5DFF"></path>
                    </g>
                    <defs>
                        <clipPath id="clip0">
                            <path fill="#fff" d="M0 0h46v46H0z"></path>
                        </clipPath>
                    </defs>
                </svg>