<svg width="35" height="35" fill="none" xmlns="http://www.w3.org/2000/svg" class="header-container__scroll-icon-service">
            <path d="M17.5 0C10.705 0 5.177 5.615 5.177 12.517v9.967C5.177 29.385 10.705 35 17.5 35c6.795 0 12.324-5.598 12.324-12.478V12.517C29.824 5.615 24.295 0 17.5 0zm10.006 22.522c0 5.602-4.488 10.16-10.006 10.16-5.517 0-10.005-4.575-10.005-10.199v-9.966c0-5.624 4.488-10.2 10.005-10.2 5.518 0 10.006 4.576 10.006 10.2v10.005z" fill="#ACB2C4"></path>
            <path d="M17.5 9.58c-.64 0-1.159.52-1.159 1.16v4.056a1.159 1.159 0 102.318 0V10.74c0-.64-.519-1.16-1.159-1.16z" fill="#ACB2C4"></path>
        </svg>