<svg width="40" height="41" viewBox="0 0 40 41" fill="none" xmlns="http://www.w3.org/2000/svg">
<circle cx="20" cy="20.7373" r="20" fill="white"/>
<path fill-rule="evenodd" clip-rule="evenodd" d="M14.7747 11.0212C14.7747 12.2663 13.8267 13.2739 12.3442 13.2739C10.9194 13.2739 9.97132 12.2663 10.0007 11.0212C9.97132 9.71559 10.9193 8.7373 12.3726 8.7373C13.8267 8.7373 14.7463 9.71559 14.7747 11.0212ZM10.1199 29.5564V15.0535H14.6271V29.5554H10.1199V29.5564Z" fill="#111111"/>
<path fill-rule="evenodd" clip-rule="evenodd" d="M18.2393 19.6814C18.2393 17.8725 18.1797 16.3303 18.1201 15.055H22.0351L22.2432 17.0418H22.3322C22.9254 16.1222 24.4079 14.7295 26.8101 14.7295C29.7752 14.7295 31.9995 16.687 31.9995 20.9559V29.5578H27.4922V21.5206C27.4922 19.6512 26.8404 18.3767 25.2093 18.3767C23.9633 18.3767 23.2224 19.2368 22.9263 20.0665C22.8071 20.3636 22.7484 20.778 22.7484 21.1942V29.5578H18.2411V19.6814H18.2393Z" fill="#111111"/>
</svg>
