<svg width="40" height="41" viewBox="0 0 40 41" fill="none" xmlns="http://www.w3.org/2000/svg">
<circle cx="20" cy="20.7373" r="20" fill="white"/>
<path fill-rule="evenodd" clip-rule="evenodd" d="M32 13.046C31.1177 13.4379 30.1681 13.7019 29.1722 13.8211C30.1889 13.2115 30.9697 12.2468 31.3368 11.0973C30.3865 11.662 29.3314 12.0708 28.2107 12.2924C27.3123 11.3357 26.0316 10.7373 24.6165 10.7373C21.8975 10.7373 19.6928 12.942 19.6928 15.661C19.6928 16.0465 19.7368 16.4225 19.8208 16.7833C15.7283 16.5785 12.1005 14.6178 9.67189 11.6388C9.24792 12.366 9.00553 13.2115 9.00553 14.1139C9.00553 15.8218 9.87347 17.3289 11.1958 18.212C10.3878 18.1864 9.62949 17.9648 8.96473 17.5961V17.6576C8.96473 20.0439 10.663 22.0334 12.9141 22.4869C12.5013 22.5989 12.0661 22.6597 11.6174 22.6597C11.2998 22.6597 10.991 22.6285 10.6902 22.5709C11.3166 24.5268 13.1357 25.9507 15.2899 25.9907C13.6052 27.3106 11.4822 28.0985 9.17512 28.0985C8.77675 28.0985 8.38477 28.0753 8 28.0289C10.1791 29.4257 12.7669 30.2416 15.5475 30.2416C24.6037 30.2416 29.5562 22.7389 29.5562 16.2329C29.5562 16.0193 29.5522 15.8066 29.5418 15.5962C30.5049 14.9002 31.34 14.0331 32 13.046Z" fill="#111111"/>
</svg>
